<svg xmlns="http://www.w3.org/2000/svg" xmlns:xlink="http://www.w3.org/1999/xlink" width="1920" height="960" viewBox="0 0 1920 960">
  <defs>
    <style>
      .cls-1 {
        clip-path: url(#clip-cover);
      }

      .cls-2 {
        opacity: 0.102;
      }

      .cls-3 {
        fill: #0d2a47;
      }

      .cls-4, .cls-8, .cls-9 {
        fill: #00ffb0;
      }

      .cls-5 {
        fill: #fff;
      }

      .cls-6 {
        fill: url(#linear-gradient);
      }

      .cls-7 {
        fill: url(#linear-gradient-2);
      }

      .cls-8 {
        opacity: 0.596;
      }

      .cls-9 {
        opacity: 0.299;
      }

      .cls-10, .cls-11 {
        fill: none;
        stroke: #00ffb0;
      }

      .cls-10 {
        stroke-width: 6px;
      }

      .cls-11 {
        stroke-width: 5px;
      }

      .cls-12 {
        fill: #f5f8f9;
      }

      .cls-13 {
        filter: url(#Rectangle_10);
      }
    </style>
    <filter id="Rectangle_10" x="1003.846" y="8.846" width="865.52" height="865.52" filterUnits="userSpaceOnUse">
      <feOffset dy="15" input="SourceAlpha"/>
      <feGaussianBlur stdDeviation="25" result="blur"/>
      <feFlood flood-color="#0d2a47" flood-opacity="0.102"/>
      <feComposite operator="in" in2="blur"/>
      <feComposite in="SourceGraphic"/>
    </filter>
    <linearGradient id="linear-gradient" x1="0.837" y1="0.298" x2="0.345" y2="0.892" gradientUnits="objectBoundingBox">
      <stop offset="0" stop-color="#244466"/>
      <stop offset="1" stop-color="#0d2a47"/>
    </linearGradient>
    <linearGradient id="linear-gradient-2" x1="0.111" y1="0.205" x2="0.385" y2="1.027" gradientUnits="objectBoundingBox">
      <stop offset="0" stop-color="#fff"/>
      <stop offset="1" stop-color="#244466"/>
    </linearGradient>
    <clipPath id="clip-cover">
      <rect width="1920" height="960"/>
    </clipPath>
  </defs>
  <g id="cover" class="cls-1">
    <rect class="cls-12" width="1920" height="960"/>
    <g id="Group_23" data-name="Group 23" transform="translate(107.765 9.058)">
      <g id="Group_18" data-name="Group 18" class="cls-2" transform="translate(1421.498 -16.779)">
        <path id="Path_13" data-name="Path 13" class="cls-3" d="M221.684,597.034A11.431,11.431,0,1,1,210.255,585.6,11.428,11.428,0,0,1,221.684,597.034Z" transform="translate(-198.822 -585.6)"/>
        <path id="Path_14" data-name="Path 14" class="cls-3" d="M235.689,597.028A11.433,11.433,0,1,1,224.255,585.6,11.437,11.437,0,0,1,235.689,597.028Z" transform="translate(-137.813 -585.6)"/>
        <path id="Path_15" data-name="Path 15" class="cls-3" d="M249.684,597.029A11.431,11.431,0,1,1,238.255,585.6,11.428,11.428,0,0,1,249.684,597.029Z" transform="translate(-76.805 -585.595)"/>
        <path id="Path_16" data-name="Path 16" class="cls-3" d="M263.689,597.028A11.433,11.433,0,1,1,252.261,585.6,11.434,11.434,0,0,1,263.689,597.028Z" transform="translate(-15.796 -585.6)"/>
        <path id="Path_17" data-name="Path 17" class="cls-3" d="M277.688,597.029A11.433,11.433,0,1,1,266.26,585.6,11.428,11.428,0,0,1,277.688,597.029Z" transform="translate(45.208 -585.595)"/>
        <path id="Path_18" data-name="Path 18" class="cls-3" d="M291.683,597.028A11.431,11.431,0,1,1,280.255,585.6,11.426,11.426,0,0,1,291.683,597.028Z" transform="translate(106.22 -585.6)"/>
        <path id="Path_19" data-name="Path 19" class="cls-3" d="M221.684,610.107a11.431,11.431,0,1,1-11.428-11.428A11.429,11.429,0,0,1,221.684,610.107Z" transform="translate(-198.822 -528.605)"/>
        <path id="Path_20" data-name="Path 20" class="cls-3" d="M235.689,610.112a11.433,11.433,0,1,1-11.433-11.434A11.44,11.44,0,0,1,235.689,610.112Z" transform="translate(-137.813 -528.609)"/>
        <path id="Path_21" data-name="Path 21" class="cls-3" d="M249.684,610.107a11.431,11.431,0,1,1-11.428-11.428A11.429,11.429,0,0,1,249.684,610.107Z" transform="translate(-76.805 -528.605)"/>
        <path id="Path_22" data-name="Path 22" class="cls-3" d="M263.689,610.112a11.433,11.433,0,1,1-11.433-11.434A11.441,11.441,0,0,1,263.689,610.112Z" transform="translate(-15.796 -528.609)"/>
        <path id="Path_23" data-name="Path 23" class="cls-3" d="M277.693,610.107a11.436,11.436,0,1,1-11.433-11.428A11.437,11.437,0,0,1,277.693,610.107Z" transform="translate(45.208 -528.605)"/>
        <path id="Path_24" data-name="Path 24" class="cls-3" d="M291.683,610.107a11.431,11.431,0,1,1-11.428-11.428A11.426,11.426,0,0,1,291.683,610.107Z" transform="translate(106.22 -528.605)"/>
        <path id="Path_25" data-name="Path 25" class="cls-3" d="M221.684,623.19a11.431,11.431,0,1,1-11.428-11.433A11.425,11.425,0,0,1,221.684,623.19Z" transform="translate(-198.822 -471.614)"/>
        <path id="Path_26" data-name="Path 26" class="cls-3" d="M235.689,623.185a11.433,11.433,0,1,1-11.433-11.428A11.434,11.434,0,0,1,235.689,623.185Z" transform="translate(-137.813 -471.614)"/>
        <path id="Path_27" data-name="Path 27" class="cls-3" d="M249.689,623.19a11.433,11.433,0,1,1-11.439-11.433A11.433,11.433,0,0,1,249.689,623.19Z" transform="translate(-76.805 -471.614)"/>
        <path id="Path_28" data-name="Path 28" class="cls-3" d="M263.689,623.185a11.433,11.433,0,1,1-11.433-11.428A11.441,11.441,0,0,1,263.689,623.185Z" transform="translate(-15.796 -471.614)"/>
        <path id="Path_29" data-name="Path 29" class="cls-3" d="M277.689,623.181a11.433,11.433,0,1,1-11.433-11.423A11.433,11.433,0,0,1,277.689,623.181Z" transform="translate(45.212 -471.61)"/>
        <path id="Path_30" data-name="Path 30" class="cls-3" d="M291.683,623.185a11.431,11.431,0,1,1-11.428-11.428A11.423,11.423,0,0,1,291.683,623.185Z" transform="translate(106.22 -471.614)"/>
        <path id="Path_31" data-name="Path 31" class="cls-3" d="M221.684,636.269a11.431,11.431,0,1,1-11.428-11.433A11.42,11.42,0,0,1,221.684,636.269Z" transform="translate(-198.822 -414.619)"/>
        <path id="Path_32" data-name="Path 32" class="cls-3" d="M235.689,636.269a11.433,11.433,0,1,1-11.433-11.433A11.438,11.438,0,0,1,235.689,636.269Z" transform="translate(-137.813 -414.624)"/>
        <path id="Path_33" data-name="Path 33" class="cls-3" d="M249.689,636.264a11.433,11.433,0,1,1-11.439-11.428A11.438,11.438,0,0,1,249.689,636.264Z" transform="translate(-76.805 -414.619)"/>
        <path id="Path_34" data-name="Path 34" class="cls-3" d="M263.689,636.269a11.433,11.433,0,1,1-11.433-11.433A11.445,11.445,0,0,1,263.689,636.269Z" transform="translate(-15.796 -414.624)"/>
        <path id="Path_35" data-name="Path 35" class="cls-3" d="M277.689,636.26a11.433,11.433,0,1,1-11.433-11.423A11.429,11.429,0,0,1,277.689,636.26Z" transform="translate(45.212 -414.615)"/>
        <path id="Path_36" data-name="Path 36" class="cls-3" d="M291.683,636.269a11.431,11.431,0,1,1-11.428-11.433A11.437,11.437,0,0,1,291.683,636.269Z" transform="translate(106.22 -414.624)"/>
        <path id="Path_37" data-name="Path 37" class="cls-3" d="M221.684,649.349a11.431,11.431,0,1,1-11.428-11.434A11.42,11.42,0,0,1,221.684,649.349Z" transform="translate(-198.822 -357.624)"/>
        <path id="Path_38" data-name="Path 38" class="cls-3" d="M235.689,649.347a11.433,11.433,0,1,1-11.433-11.433A11.437,11.437,0,0,1,235.689,649.347Z" transform="translate(-137.813 -357.629)"/>
        <path id="Path_39" data-name="Path 39" class="cls-3" d="M249.689,649.343a11.433,11.433,0,1,1-11.439-11.428A11.437,11.437,0,0,1,249.689,649.343Z" transform="translate(-76.805 -357.624)"/>
        <path id="Path_40" data-name="Path 40" class="cls-3" d="M263.689,649.347a11.433,11.433,0,1,1-11.433-11.433A11.444,11.444,0,0,1,263.689,649.347Z" transform="translate(-15.796 -357.629)"/>
        <path id="Path_41" data-name="Path 41" class="cls-3" d="M277.689,649.343a11.433,11.433,0,1,1-11.439-11.428A11.428,11.428,0,0,1,277.689,649.343Z" transform="translate(45.212 -357.624)"/>
        <path id="Path_42" data-name="Path 42" class="cls-3" d="M291.683,649.347a11.431,11.431,0,1,1-11.428-11.433A11.436,11.436,0,0,1,291.683,649.347Z" transform="translate(106.22 -357.629)"/>
        <path id="Path_43" data-name="Path 43" class="cls-3" d="M221.689,662.422a11.433,11.433,0,1,1-11.433-11.428A11.433,11.433,0,0,1,221.689,662.422Z" transform="translate(-198.822 -300.629)"/>
        <path id="Path_44" data-name="Path 44" class="cls-3" d="M235.689,662.427a11.433,11.433,0,1,1-11.433-11.434A11.433,11.433,0,0,1,235.689,662.427Z" transform="translate(-137.813 -300.633)"/>
        <path id="Path_45" data-name="Path 45" class="cls-3" d="M249.689,662.422a11.433,11.433,0,1,1-11.439-11.428A11.428,11.428,0,0,1,249.689,662.422Z" transform="translate(-76.805 -300.629)"/>
        <path id="Path_46" data-name="Path 46" class="cls-3" d="M263.689,662.427a11.433,11.433,0,1,1-11.433-11.434A11.436,11.436,0,0,1,263.689,662.427Z" transform="translate(-15.796 -300.633)"/>
        <path id="Path_47" data-name="Path 47" class="cls-3" d="M277.689,662.427a11.433,11.433,0,1,1-11.433-11.434A11.433,11.433,0,0,1,277.689,662.427Z" transform="translate(45.212 -300.633)"/>
        <path id="Path_48" data-name="Path 48" class="cls-3" d="M291.683,662.427a11.431,11.431,0,1,1-11.428-11.434A11.425,11.425,0,0,1,291.683,662.427Z" transform="translate(106.22 -300.633)"/>
      </g>
      <g id="Group_20" data-name="Group 20" class="cls-2" transform="translate(1191.613 -16.779)">
        <path id="Path_16-2" data-name="Path 16" class="cls-3" d="M263.689,597.028A11.433,11.433,0,1,1,252.261,585.6,11.434,11.434,0,0,1,263.689,597.028Z" transform="translate(-240.822 -585.6)"/>
        <path id="Path_17-2" data-name="Path 17" class="cls-3" d="M277.688,597.029A11.433,11.433,0,1,1,266.26,585.6,11.428,11.428,0,0,1,277.688,597.029Z" transform="translate(-179.818 -585.595)"/>
        <path id="Path_18-2" data-name="Path 18" class="cls-3" d="M291.683,597.028A11.431,11.431,0,1,1,280.255,585.6,11.426,11.426,0,0,1,291.683,597.028Z" transform="translate(-118.805 -585.6)"/>
        <path id="Path_22-2" data-name="Path 22" class="cls-3" d="M263.689,610.112a11.433,11.433,0,1,1-11.433-11.434A11.441,11.441,0,0,1,263.689,610.112Z" transform="translate(-240.822 -528.609)"/>
        <path id="Path_23-2" data-name="Path 23" class="cls-3" d="M277.693,610.107a11.436,11.436,0,1,1-11.433-11.428A11.437,11.437,0,0,1,277.693,610.107Z" transform="translate(-179.818 -528.605)"/>
        <path id="Path_24-2" data-name="Path 24" class="cls-3" d="M291.683,610.107a11.431,11.431,0,1,1-11.428-11.428A11.426,11.426,0,0,1,291.683,610.107Z" transform="translate(-118.805 -528.605)"/>
        <path id="Path_28-2" data-name="Path 28" class="cls-3" d="M263.689,623.185a11.433,11.433,0,1,1-11.433-11.428A11.441,11.441,0,0,1,263.689,623.185Z" transform="translate(-240.822 -471.614)"/>
        <path id="Path_29-2" data-name="Path 29" class="cls-3" d="M277.689,623.181a11.433,11.433,0,1,1-11.433-11.423A11.433,11.433,0,0,1,277.689,623.181Z" transform="translate(-179.814 -471.61)"/>
        <path id="Path_30-2" data-name="Path 30" class="cls-3" d="M291.683,623.185a11.431,11.431,0,1,1-11.428-11.428A11.423,11.423,0,0,1,291.683,623.185Z" transform="translate(-118.805 -471.614)"/>
        <path id="Path_34-2" data-name="Path 34" class="cls-3" d="M263.689,636.269a11.433,11.433,0,1,1-11.433-11.433A11.445,11.445,0,0,1,263.689,636.269Z" transform="translate(-240.822 -414.624)"/>
        <path id="Path_35-2" data-name="Path 35" class="cls-3" d="M277.689,636.26a11.433,11.433,0,1,1-11.433-11.423A11.429,11.429,0,0,1,277.689,636.26Z" transform="translate(-179.814 -414.615)"/>
        <path id="Path_36-2" data-name="Path 36" class="cls-3" d="M291.683,636.269a11.431,11.431,0,1,1-11.428-11.433A11.437,11.437,0,0,1,291.683,636.269Z" transform="translate(-118.805 -414.624)"/>
        <path id="Path_40-2" data-name="Path 40" class="cls-3" d="M263.689,649.347a11.433,11.433,0,1,1-11.433-11.433A11.444,11.444,0,0,1,263.689,649.347Z" transform="translate(-240.822 -357.629)"/>
        <path id="Path_41-2" data-name="Path 41" class="cls-3" d="M277.689,649.343a11.433,11.433,0,1,1-11.439-11.428A11.428,11.428,0,0,1,277.689,649.343Z" transform="translate(-179.814 -357.624)"/>
        <path id="Path_42-2" data-name="Path 42" class="cls-3" d="M291.683,649.347a11.431,11.431,0,1,1-11.428-11.433A11.436,11.436,0,0,1,291.683,649.347Z" transform="translate(-118.805 -357.629)"/>
        <path id="Path_46-2" data-name="Path 46" class="cls-3" d="M263.689,662.427a11.433,11.433,0,1,1-11.433-11.434A11.436,11.436,0,0,1,263.689,662.427Z" transform="translate(-240.822 -300.633)"/>
        <path id="Path_47-2" data-name="Path 47" class="cls-3" d="M277.689,662.427a11.433,11.433,0,1,1-11.433-11.434A11.433,11.433,0,0,1,277.689,662.427Z" transform="translate(-179.814 -300.633)"/>
        <path id="Path_48-2" data-name="Path 48" class="cls-3" d="M291.683,662.427a11.431,11.431,0,1,1-11.428-11.434A11.425,11.425,0,0,1,291.683,662.427Z" transform="translate(-118.805 -300.633)"/>
      </g>
    </g>
    <path id="Path_90" data-name="Path 90" class="cls-3" d="M30.75-16.2H66.3V0H9.6V-105.9H30.75ZM107.7-84.15q10.5,0,18,4.95a26.959,26.959,0,0,1,10.65,13.35V-83.1h21V0h-21V-17.4A27.357,27.357,0,0,1,125.7-3.975q-7.5,5.025-18,5.025a35.7,35.7,0,0,1-18.9-5.1A34.455,34.455,0,0,1,75.675-18.825Q70.95-28.5,70.95-41.55t4.725-22.725A34.455,34.455,0,0,1,88.8-79.05,35.7,35.7,0,0,1,107.7-84.15Zm6.6,18.45q-9.9,0-15.9,6.45t-6,17.7q0,11.25,6,17.625t15.9,6.375a20.926,20.926,0,0,0,15.825-6.525Q136.35-30.6,136.35-41.55q0-11.1-6.225-17.625A20.926,20.926,0,0,0,114.3-65.7Zm75.6,48h40.8V0H166.8V-16.8l38.25-48.75H167.7V-83.1h61.5v16.65Zm64.5-65.4,22.65,56.4,21-56.4H321.3L270.45,39.6h-23.4l18.75-42L230.85-83.1ZM400.2-28.95a28.715,28.715,0,0,1-4.05,14.925,29.09,29.09,0,0,1-12,10.95Q376.2,1.05,364.8,1.05a50.212,50.212,0,0,1-20.1-3.825A33.987,33.987,0,0,1,330.525-13.8a31.8,31.8,0,0,1-6.075-16.8h22.5a17.192,17.192,0,0,0,5.175,10.725Q356.55-15.6,363.9-15.6q6.6,0,10.125-3.525A12.283,12.283,0,0,0,377.55-28.2a11.89,11.89,0,0,0-2.85-8.175,20.8,20.8,0,0,0-7.2-5.175q-4.35-1.95-12-4.5a118.623,118.623,0,0,1-16.2-6.525,29.946,29.946,0,0,1-10.725-9.375Q324.15-68.1,324.15-78q0-13.65,9.825-21.525T360-107.4q16.8,0,26.775,8.1T398.1-77.7H375.3a15.879,15.879,0,0,0-4.8-9.375q-3.9-3.675-10.65-3.675a14.046,14.046,0,0,0-9.45,3.075q-3.6,3.075-3.6,8.925a11.1,11.1,0,0,0,2.775,7.725A21.176,21.176,0,0,0,356.625-66a115.715,115.715,0,0,0,11.625,4.35,154.556,154.556,0,0,1,16.575,6.75A29.205,29.205,0,0,1,395.7-45.45Q400.2-39.15,400.2-28.95Zm9.45-78a10.664,10.664,0,0,1,3.6-8.325,13.628,13.628,0,0,1,9.45-3.225,13.628,13.628,0,0,1,9.45,3.225,10.664,10.664,0,0,1,3.6,8.325,10.5,10.5,0,0,1-3.6,8.175,13.628,13.628,0,0,1-9.45,3.225,13.628,13.628,0,0,1-9.45-3.225A10.5,10.5,0,0,1,409.65-106.95ZM433.2-83.1V0H412.05V-83.1Zm32.55,65.4h40.8V0h-63.9V-16.8L480.9-65.55H443.55V-83.1h61.5v16.65Zm128.4-27a40.043,40.043,0,0,1-.75,7.2H532.5q.45,11.1,6,16.35a19.3,19.3,0,0,0,13.8,5.25,20.022,20.022,0,0,0,12.225-3.6,15.946,15.946,0,0,0,6.225-9.75H593.1a35.755,35.755,0,0,1-7.05,15.6,36.841,36.841,0,0,1-13.875,10.8,44.5,44.5,0,0,1-18.825,3.9,44.233,44.233,0,0,1-21.6-5.175A36.377,36.377,0,0,1,517.05-18.9q-5.25-9.6-5.25-22.65t5.25-22.725a35.782,35.782,0,0,1,14.7-14.775,44.758,44.758,0,0,1,21.6-5.1,43.778,43.778,0,0,1,21.525,5.1,35.946,35.946,0,0,1,14.25,14.025A40.705,40.705,0,0,1,594.15-44.7Zm-21.3-2.1q.45-10.2-5.325-15.45A20.3,20.3,0,0,0,553.35-67.5a20.775,20.775,0,0,0-14.4,5.25Q533.1-57,532.5-46.8Zm61.2-37.35q15.15,0,24.3,7.65t11.4,20.4h-19.8a16.462,16.462,0,0,0-5.4-9.6q-4.2-3.6-10.95-3.6-5.4,0-8.4,2.55a8.587,8.587,0,0,0-3,6.9,7.014,7.014,0,0,0,2.4,5.55,17.289,17.289,0,0,0,6,3.3q3.6,1.2,10.35,2.85a106.438,106.438,0,0,1,15.375,4.425,25.44,25.44,0,0,1,10.2,7.35Q670.8-31.35,670.8-22.8a20.971,20.971,0,0,1-8.325,17.25q-8.325,6.6-22.425,6.6-16.2,0-25.95-7.275T602.25-27H622.5a13.684,13.684,0,0,0,5.4,9.675q4.65,3.525,12.15,3.525,5.4,0,8.25-2.625a8.85,8.85,0,0,0,2.85-6.825,7.539,7.539,0,0,0-2.475-5.85,16.708,16.708,0,0,0-6.15-3.45q-3.675-1.2-10.425-2.85a117.5,117.5,0,0,1-15.075-4.275,24.07,24.07,0,0,1-9.9-6.975Q603-51.45,603-59.85a21.611,21.611,0,0,1,8.25-17.55Q619.5-84.15,634.05-84.15Z" transform="translate(150 403)"/>
    <path id="Path_94" data-name="Path 94" class="cls-3" d="M29.16-9.78H10.56L7.02,0H1.14L16.8-41.52h6.18L38.58,0H32.7ZM27.6-14.04,19.86-35.4,12.12-14.04ZM74.1-33.36a14.931,14.931,0,0,1,7.8,2.04,14.071,14.071,0,0,1,5.37,5.88,19.633,19.633,0,0,1,1.95,9,19.447,19.447,0,0,1-1.95,8.97A14.109,14.109,0,0,1,81.9-1.62,14.931,14.931,0,0,1,74.1.42a13.417,13.417,0,0,1-8.13-2.43A12.347,12.347,0,0,1,61.38-8.4V0H55.92V-44.4h5.46v19.86a12.347,12.347,0,0,1,4.59-6.39A13.417,13.417,0,0,1,74.1-33.36ZM72.54-28.5a11.428,11.428,0,0,0-5.76,1.47,10.141,10.141,0,0,0-4.02,4.23,13.552,13.552,0,0,0-1.44,6.36,13.372,13.372,0,0,0,1.44,6.33,10.382,10.382,0,0,0,4.02,4.23,11.249,11.249,0,0,0,5.76,1.5,10.649,10.649,0,0,0,8.13-3.21q3.03-3.21,3.03-8.85t-3.03-8.85A10.649,10.649,0,0,0,72.54-28.5Zm52.62,10.2a16.259,16.259,0,0,1-.24,3H98.58q.18,5.64,3.21,8.46a10.474,10.474,0,0,0,7.41,2.82,10.709,10.709,0,0,0,6.63-2.01,8.31,8.31,0,0,0,3.27-5.37h5.82a13.836,13.836,0,0,1-2.67,6.12,13.855,13.855,0,0,1-5.37,4.2,17.784,17.784,0,0,1-7.44,1.5,16.962,16.962,0,0,1-8.4-2.04,14.416,14.416,0,0,1-5.73-5.85,18.512,18.512,0,0,1-2.07-8.97,18.688,18.688,0,0,1,2.07-9,14.37,14.37,0,0,1,5.73-5.88,16.962,16.962,0,0,1,8.4-2.04,16.582,16.582,0,0,1,8.37,2.04,14.046,14.046,0,0,1,5.46,5.46A15.367,15.367,0,0,1,125.16-18.3Zm-5.52.36a11.206,11.206,0,0,0-1.2-6.12,8.773,8.773,0,0,0-3.78-3.66,11.508,11.508,0,0,0-5.22-1.2,10.8,10.8,0,0,0-7.56,2.79q-3.06,2.79-3.3,8.19ZM146.52-4.8V0h-4.08q-5.04,0-7.53-2.4t-2.49-8.04V-28.2H127.5v-4.74h4.92v-8.22h5.52v8.22h8.52v4.74h-8.52v17.88q0,3.18,1.17,4.35t4.05,1.17Zm20.88,0V0h-4.08q-5.04,0-7.53-2.4t-2.49-8.04V-28.2h-4.92v-4.74h4.92v-8.22h5.52v8.22h8.52v4.74h-8.52v17.88q0,3.18,1.17,4.35t4.05,1.17Zm35.46-13.5a16.26,16.26,0,0,1-.24,3H176.28q.18,5.64,3.21,8.46a10.475,10.475,0,0,0,7.41,2.82,10.71,10.71,0,0,0,6.63-2.01,8.31,8.31,0,0,0,3.27-5.37h5.82a13.836,13.836,0,0,1-2.67,6.12,13.855,13.855,0,0,1-5.37,4.2,17.784,17.784,0,0,1-7.44,1.5,16.962,16.962,0,0,1-8.4-2.04,14.416,14.416,0,0,1-5.73-5.85,18.512,18.512,0,0,1-2.07-8.97,18.688,18.688,0,0,1,2.07-9,14.37,14.37,0,0,1,5.73-5.88,16.962,16.962,0,0,1,8.4-2.04,16.582,16.582,0,0,1,8.37,2.04,14.046,14.046,0,0,1,5.46,5.46A15.367,15.367,0,0,1,202.86-18.3Zm-5.52.36a11.206,11.206,0,0,0-1.2-6.12,8.773,8.773,0,0,0-3.78-3.66,11.508,11.508,0,0,0-5.22-1.2,10.8,10.8,0,0,0-7.56,2.79q-3.06,2.79-3.3,8.19Zm16.62-8.34a12.115,12.115,0,0,1,4.74-5.31,14.088,14.088,0,0,1,7.44-1.89v5.94h-1.68a11.666,11.666,0,0,0-7.56,2.37q-2.94,2.37-2.94,7.83V0H208.5V-32.94h5.46Zm74.64-6.66L279.12,0h-5.88l-9.06-26.82L255.06,0h-5.94l-9.36-32.94h5.52L252.3-5.22l9.12-27.72h5.7L276.3-5.28l7.08-27.66Zm17.1-.42a13.535,13.535,0,0,1,8.13,2.4,12.508,12.508,0,0,1,4.65,6.42v-8.4h5.46V0h-5.46V-8.4a12.508,12.508,0,0,1-4.65,6.42A13.535,13.535,0,0,1,305.7.42a14.931,14.931,0,0,1-7.8-2.04,14.11,14.11,0,0,1-5.37-5.85,19.447,19.447,0,0,1-1.95-8.97,19.634,19.634,0,0,1,1.95-9,14.071,14.071,0,0,1,5.37-5.88A14.931,14.931,0,0,1,305.7-33.36Zm1.56,4.86a10.575,10.575,0,0,0-8.07,3.21q-3.03,3.21-3.03,8.85t3.03,8.85a10.575,10.575,0,0,0,8.07,3.21,11.2,11.2,0,0,0,5.79-1.5,10.443,10.443,0,0,0,3.99-4.23,13.372,13.372,0,0,0,1.44-6.33,13.552,13.552,0,0,0-1.44-6.36,10.2,10.2,0,0,0-3.99-4.23A11.382,11.382,0,0,0,307.26-28.5Zm26.16-4.44L344.1-7.02,354-32.94h6.06L340.5,15.6h-6.18L341.16-.54,327.3-32.94ZM392.58-4.8V0H388.5q-5.04,0-7.53-2.4t-2.49-8.04V-28.2h-4.92v-4.74h4.92v-8.22H384v8.22h8.52v4.74H384v17.88q0,3.18,1.17,4.35t4.05,1.17Zm20.1-28.56a17.475,17.475,0,0,1,8.49,2.04,14.6,14.6,0,0,1,5.88,5.88,18.259,18.259,0,0,1,2.13,9,18.088,18.088,0,0,1-2.13,8.97,14.648,14.648,0,0,1-5.88,5.85A17.475,17.475,0,0,1,412.68.42a17.476,17.476,0,0,1-8.49-2.04,14.845,14.845,0,0,1-5.91-5.85,17.887,17.887,0,0,1-2.16-8.97,18.055,18.055,0,0,1,2.16-9,14.793,14.793,0,0,1,5.91-5.88A17.476,17.476,0,0,1,412.68-33.36Zm0,4.8a11.414,11.414,0,0,0-5.43,1.32,9.924,9.924,0,0,0-4.02,4.05,13.641,13.641,0,0,0-1.53,6.75,13.507,13.507,0,0,0,1.53,6.69,9.924,9.924,0,0,0,4.02,4.05,11.414,11.414,0,0,0,5.43,1.32,11.414,11.414,0,0,0,5.43-1.32,9.924,9.924,0,0,0,4.02-4.05,13.507,13.507,0,0,0,1.53-6.69,13.641,13.641,0,0,0-1.53-6.75,9.924,9.924,0,0,0-4.02-4.05A11.414,11.414,0,0,0,412.68-28.56ZM453.6-44.4V0h-5.46V-44.4Zm20.76,11.04a13.535,13.535,0,0,1,8.13,2.4,12.508,12.508,0,0,1,4.65,6.42v-8.4h5.46V0h-5.46V-8.4a12.508,12.508,0,0,1-4.65,6.42,13.535,13.535,0,0,1-8.13,2.4,14.931,14.931,0,0,1-7.8-2.04,14.11,14.11,0,0,1-5.37-5.85,19.447,19.447,0,0,1-1.95-8.97,19.634,19.634,0,0,1,1.95-9,14.071,14.071,0,0,1,5.37-5.88A14.931,14.931,0,0,1,474.36-33.36Zm1.56,4.86a10.575,10.575,0,0,0-8.07,3.21q-3.03,3.21-3.03,8.85t3.03,8.85a10.575,10.575,0,0,0,8.07,3.21,11.2,11.2,0,0,0,5.79-1.5,10.443,10.443,0,0,0,3.99-4.23,13.372,13.372,0,0,0,1.44-6.33,13.552,13.552,0,0,0-1.44-6.36,10.2,10.2,0,0,0-3.99-4.23A11.382,11.382,0,0,0,475.92-28.5ZM502.98-4.62h17.64V0H496.98V-4.38l16.8-23.94H497.46v-4.62h22.56v4.44Zm24.36-28.32L538.02-7.02l9.9-25.92h6.06L534.42,15.6h-6.18L535.08-.54l-13.86-32.4Zm48.9-11.46V0h-5.46V-44.4Zm22.2,11.04a17.476,17.476,0,0,1,8.49,2.04,14.6,14.6,0,0,1,5.88,5.88,18.26,18.26,0,0,1,2.13,9,18.089,18.089,0,0,1-2.13,8.97,14.648,14.648,0,0,1-5.88,5.85A17.476,17.476,0,0,1,598.44.42a17.476,17.476,0,0,1-8.49-2.04,14.845,14.845,0,0,1-5.91-5.85,17.886,17.886,0,0,1-2.16-8.97,18.055,18.055,0,0,1,2.16-9,14.794,14.794,0,0,1,5.91-5.88A17.476,17.476,0,0,1,598.44-33.36Zm0,4.8a11.413,11.413,0,0,0-5.43,1.32,9.924,9.924,0,0,0-4.02,4.05,13.641,13.641,0,0,0-1.53,6.75,13.507,13.507,0,0,0,1.53,6.69,9.924,9.924,0,0,0,4.02,4.05,11.413,11.413,0,0,0,5.43,1.32,11.413,11.413,0,0,0,5.43-1.32,9.924,9.924,0,0,0,4.02-4.05,13.507,13.507,0,0,0,1.53-6.69,13.641,13.641,0,0,0-1.53-6.75,9.924,9.924,0,0,0-4.02-4.05A11.413,11.413,0,0,0,598.44-28.56Zm35.64-4.8a13.535,13.535,0,0,1,8.13,2.4,12.508,12.508,0,0,1,4.65,6.42v-8.4h5.46V0h-5.46V-8.4a12.508,12.508,0,0,1-4.65,6.42,13.535,13.535,0,0,1-8.13,2.4,14.931,14.931,0,0,1-7.8-2.04,14.109,14.109,0,0,1-5.37-5.85,19.447,19.447,0,0,1-1.95-8.97,19.634,19.634,0,0,1,1.95-9,14.07,14.07,0,0,1,5.37-5.88A14.931,14.931,0,0,1,634.08-33.36Zm1.56,4.86a10.575,10.575,0,0,0-8.07,3.21q-3.03,3.21-3.03,8.85t3.03,8.85a10.575,10.575,0,0,0,8.07,3.21,11.2,11.2,0,0,0,5.79-1.5,10.442,10.442,0,0,0,3.99-4.23,13.371,13.371,0,0,0,1.44-6.33,13.552,13.552,0,0,0-1.44-6.36,10.2,10.2,0,0,0-3.99-4.23A11.382,11.382,0,0,0,635.64-28.5Zm37.38-4.86a13.535,13.535,0,0,1,8.13,2.4,12.508,12.508,0,0,1,4.65,6.42V-44.4h5.46V0H685.8V-8.4a12.508,12.508,0,0,1-4.65,6.42,13.535,13.535,0,0,1-8.13,2.4,14.931,14.931,0,0,1-7.8-2.04,14.109,14.109,0,0,1-5.37-5.85,19.447,19.447,0,0,1-1.95-8.97,19.634,19.634,0,0,1,1.95-9,14.07,14.07,0,0,1,5.37-5.88A14.931,14.931,0,0,1,673.02-33.36Zm1.56,4.86a10.575,10.575,0,0,0-8.07,3.21q-3.03,3.21-3.03,8.85t3.03,8.85a10.575,10.575,0,0,0,8.07,3.21,11.2,11.2,0,0,0,5.79-1.5,10.442,10.442,0,0,0,3.99-4.23,13.371,13.371,0,0,0,1.44-6.33,13.552,13.552,0,0,0-1.44-6.36,10.2,10.2,0,0,0-3.99-4.23A11.382,11.382,0,0,0,674.58-28.5Zm36.24-14.1a3.134,3.134,0,0,1,1.02-2.43,3.852,3.852,0,0,1,2.7-.93,3.852,3.852,0,0,1,2.7.93,3.134,3.134,0,0,1,1.02,2.43,3.134,3.134,0,0,1-1.02,2.43,3.852,3.852,0,0,1-2.7.93,3.852,3.852,0,0,1-2.7-.93A3.134,3.134,0,0,1,710.82-42.6Zm6.42,9.66V0h-5.46V-32.94ZM765-33.48a12.2,12.2,0,0,1,9.27,3.69q3.51,3.69,3.51,10.65V0h-5.46V-18.66q0-4.86-2.37-7.44a8.4,8.4,0,0,0-6.51-2.58,8.945,8.945,0,0,0-6.93,2.85q-2.61,2.85-2.61,8.37V0h-5.46V-18.66q0-4.86-2.4-7.44a8.422,8.422,0,0,0-6.48-2.58,9.017,9.017,0,0,0-6.99,2.85q-2.61,2.85-2.61,8.37V0H724.5V-32.94h5.46v7.5a10.7,10.7,0,0,1,4.29-5.97,12.475,12.475,0,0,1,7.11-2.07,12.526,12.526,0,0,1,7.29,2.13,11.59,11.59,0,0,1,4.41,6.27,11.907,11.907,0,0,1,4.62-6.21A12.771,12.771,0,0,1,765-33.48Zm33.24.12a13.535,13.535,0,0,1,8.13,2.4,12.508,12.508,0,0,1,4.65,6.42v-8.4h5.46V0h-5.46V-8.4a12.508,12.508,0,0,1-4.65,6.42,13.535,13.535,0,0,1-8.13,2.4,14.931,14.931,0,0,1-7.8-2.04,14.109,14.109,0,0,1-5.37-5.85,19.447,19.447,0,0,1-1.95-8.97,19.634,19.634,0,0,1,1.95-9,14.07,14.07,0,0,1,5.37-5.88A14.931,14.931,0,0,1,798.24-33.36Zm1.56,4.86a10.575,10.575,0,0,0-8.07,3.21q-3.03,3.21-3.03,8.85t3.03,8.85a10.575,10.575,0,0,0,8.07,3.21,11.2,11.2,0,0,0,5.79-1.5,10.442,10.442,0,0,0,3.99-4.23,13.371,13.371,0,0,0,1.44-6.33,13.552,13.552,0,0,0-1.44-6.36,10.2,10.2,0,0,0-3.99-4.23A11.382,11.382,0,0,0,799.8-28.5Zm37.38-4.86a13.535,13.535,0,0,1,8.13,2.4,12.508,12.508,0,0,1,4.65,6.42v-8.4h5.46V.54a16.718,16.718,0,0,1-1.92,8.1,13.791,13.791,0,0,1-5.4,5.52,16.1,16.1,0,0,1-8.1,1.98q-6.66,0-10.86-3.21a14.166,14.166,0,0,1-5.34-8.67h5.4a9.352,9.352,0,0,0,3.63,5.19,11.621,11.621,0,0,0,6.87,1.89,10.074,10.074,0,0,0,7.35-2.85q2.91-2.85,2.91-7.95V-8.4a12.508,12.508,0,0,1-4.65,6.42,13.535,13.535,0,0,1-8.13,2.4,14.931,14.931,0,0,1-7.8-2.04,14.109,14.109,0,0,1-5.37-5.85,19.447,19.447,0,0,1-1.95-8.97,19.634,19.634,0,0,1,1.95-9,14.07,14.07,0,0,1,5.37-5.88A14.931,14.931,0,0,1,837.18-33.36Zm1.56,4.86a10.575,10.575,0,0,0-8.07,3.21q-3.03,3.21-3.03,8.85t3.03,8.85a10.575,10.575,0,0,0,8.07,3.21,11.2,11.2,0,0,0,5.79-1.5,10.442,10.442,0,0,0,3.99-4.23,13.371,13.371,0,0,0,1.44-6.33,13.552,13.552,0,0,0-1.44-6.36,10.2,10.2,0,0,0-3.99-4.23A11.382,11.382,0,0,0,838.74-28.5Zm54.18,10.2a16.262,16.262,0,0,1-.24,3H866.34q.18,5.64,3.21,8.46a10.474,10.474,0,0,0,7.41,2.82,10.709,10.709,0,0,0,6.63-2.01,8.31,8.31,0,0,0,3.27-5.37h5.82a13.835,13.835,0,0,1-2.67,6.12,13.855,13.855,0,0,1-5.37,4.2A17.784,17.784,0,0,1,877.2.42a16.962,16.962,0,0,1-8.4-2.04,14.416,14.416,0,0,1-5.73-5.85A18.512,18.512,0,0,1,861-16.44a18.688,18.688,0,0,1,2.07-9,14.37,14.37,0,0,1,5.73-5.88,16.962,16.962,0,0,1,8.4-2.04,16.582,16.582,0,0,1,8.37,2.04,14.045,14.045,0,0,1,5.46,5.46A15.367,15.367,0,0,1,892.92-18.3Zm-5.52.36a11.206,11.206,0,0,0-1.2-6.12,8.772,8.772,0,0,0-3.78-3.66,11.508,11.508,0,0,0-5.22-1.2,10.8,10.8,0,0,0-7.56,2.79q-3.06,2.79-3.3,8.19Zm21.48-15.42a13.294,13.294,0,0,1,8.97,2.91,12.257,12.257,0,0,1,4.11,7.83h-5.22a7.559,7.559,0,0,0-2.43-4.83,7.914,7.914,0,0,0-5.55-1.89,6.847,6.847,0,0,0-4.59,1.41,4.753,4.753,0,0,0-1.65,3.81,3.935,3.935,0,0,0,1.11,2.91,7.122,7.122,0,0,0,2.76,1.68,46.042,46.042,0,0,0,4.53,1.23,44.5,44.5,0,0,1,5.91,1.71,9.257,9.257,0,0,1,3.84,2.79,7.839,7.839,0,0,1,1.59,5.16,8.108,8.108,0,0,1-3.03,6.54A12.217,12.217,0,0,1,911.16.42a15.458,15.458,0,0,1-9.6-2.82,11.248,11.248,0,0,1-4.38-7.86h5.28a6.875,6.875,0,0,0,2.61,4.86,9.417,9.417,0,0,0,6.09,1.86,6.331,6.331,0,0,0,4.41-1.44,4.858,4.858,0,0,0,1.59-3.78,4.135,4.135,0,0,0-1.14-3.06,7.476,7.476,0,0,0-2.82-1.74,41.242,41.242,0,0,0-4.62-1.26,45.088,45.088,0,0,1-5.85-1.68,8.964,8.964,0,0,1-3.72-2.67,7.475,7.475,0,0,1-1.53-4.95,8.286,8.286,0,0,1,3.06-6.69Q903.6-33.36,908.88-33.36ZM932.1-6.42V0h-6.6V-6.42Z" transform="translate(150 817)"/>
    <path id="Path_89" data-name="Path 89" class="cls-3" d="M99.3,0H78.15L30.75-72V0H9.6V-105.9H30.75l47.4,72.6v-72.6H99.3Zm94.95-83.1V0H173.1V-16.8A26.476,26.476,0,0,1,162.225-3.675,32.327,32.327,0,0,1,144.75,1.05q-14.4,0-22.95-9.45t-8.55-26.4V-83.1h21v45.9q0,9.9,5.1,15.375t13.8,5.475q9.15,0,14.55-5.85T173.1-39V-83.1Zm66,83.1-18.9-26.7L225.45,0H202.2l27.45-43.35L201.6-83.1h23.7l18.45,26.25,15.9-26.25H282.9L255-40.95,283.95,0ZM335.4-18.15V0H324.3q-13.95,0-21.375-6.75T295.5-29.25v-36H283.95V-83.1H295.5v-20.55h21.15V-83.1h18.6v17.85h-18.6v36.3q0,6,2.4,8.4t8.1,2.4Z" transform="translate(150 273)"/>
    <rect id="Rectangle_1" data-name="Rectangle 1" class="cls-4" width="210" height="86" rx="43" transform="translate(150 532)"/>
    <rect id="Rectangle_11" data-name="Rectangle 11" class="cls-4" width="294" height="86" rx="43" transform="translate(385 532)"/>
    <rect id="Rectangle_20" data-name="Rectangle 20" class="cls-4" width="256" height="86" rx="43" transform="translate(704 532)"/>
    <path id="Path_93" data-name="Path 93" class="cls-5" d="M-41.964-17.121l-1.17,5.343H-38.1v4.992h-6.084L-45.63,0h-5.109L-49.3-6.786h-7.176L-57.915,0h-5.109l1.443-6.786h-5.85v-4.992h6.9l1.17-5.343h-5.694v-4.992h6.747l1.443-6.747h5.109L-53.2-22.113h7.176l1.443-6.747h5.109l-1.443,6.747h5.187v4.992Zm-5.109,0h-7.176l-1.17,5.343h7.176ZM-27.846-4.212H-18.6V0H-33.345V-27.534h5.5ZM-10.8-27.534V0h-5.5V-27.534Zm16.77-.273a13.56,13.56,0,0,1,8.346,2.476,11.052,11.052,0,0,1,4.251,6.688H12.792A6.557,6.557,0,0,0,10.2-21.625a7.734,7.734,0,0,0-4.193-1.111,8.071,8.071,0,0,0-4.212,1.092,7.37,7.37,0,0,0-2.847,3.12,10.516,10.516,0,0,0-1.014,4.758A9.346,9.346,0,0,0,.253-7.02,8.37,8.37,0,0,0,6.591-4.6a7.738,7.738,0,0,0,5.09-1.755,8.152,8.152,0,0,0,2.749-4.875H5.109v-3.939H19.032v5.3A12.976,12.976,0,0,1,16.75-4.836,12.272,12.272,0,0,1,12.3-1.151,13.817,13.817,0,0,1,6.006.234,14.152,14.152,0,0,1-1.151-1.541a12.222,12.222,0,0,1-4.8-4.953,15.208,15.208,0,0,1-1.7-7.273,15.208,15.208,0,0,1,1.7-7.274A12.39,12.39,0,0,1-1.17-26.013,13.924,13.924,0,0,1,5.967-27.807Zm39.039.273V0H39.468V-11.973H27.69V0h-5.5V-27.534h5.5V-16.38H39.468V-27.534Zm22.737,0v4.368H60.138V0h-5.5V-23.166H47.073v-4.368Z" transform="translate(255 589)"/>
    <path id="Path_92" data-name="Path 92" class="cls-5" d="M-85.293-17.121l-1.17,5.343h5.031v4.992h-6.084L-88.959,0h-5.109l1.443-6.786H-99.8L-101.244,0h-5.109l1.443-6.786h-5.85v-4.992h6.9l1.17-5.343h-5.694v-4.992h6.747l1.443-6.747h5.109l-1.443,6.747h7.176l1.443-6.747H-82.8l-1.443,6.747h5.187v4.992Zm-5.109,0h-7.176l-1.17,5.343h7.176ZM-71.175-4.212h9.243V0H-76.674V-27.534h5.5Zm28.314-1.326H-53.9L-55.848,0h-5.811l10.14-27.222h6.279L-35.139,0H-40.95Zm-1.482-4.173L-48.4-21.333-52.455-9.711Zm16.5,5.265h12.831V0H-33.93V-4.212l12.558-18.915H-33.735v-4.407h18.564v4.212ZM10.413-27.534,1.092-9.633V0H-4.446V-9.633l-9.36-17.9h6.318l5.85,12.051,5.85-12.051ZM17.9-4.212h9.243V0H12.4V-27.534h5.5ZM42.354-27.924a13.858,13.858,0,0,1,7,1.794,13.014,13.014,0,0,1,4.953,5.012,14.553,14.553,0,0,1,1.814,7.274,14.662,14.662,0,0,1-1.814,7.293,12.977,12.977,0,0,1-4.953,5.031,13.858,13.858,0,0,1-7,1.794,13.858,13.858,0,0,1-7-1.794A12.977,12.977,0,0,1,30.4-6.552a14.662,14.662,0,0,1-1.813-7.293A14.553,14.553,0,0,1,30.4-21.118a13.014,13.014,0,0,1,4.953-5.012A13.858,13.858,0,0,1,42.354-27.924Zm0,5.07A8.147,8.147,0,0,0,38.1-21.762a7.471,7.471,0,0,0-2.867,3.14A10.471,10.471,0,0,0,34.2-13.845a10.471,10.471,0,0,0,1.033,4.777A7.471,7.471,0,0,0,38.1-5.928a8.147,8.147,0,0,0,4.251,1.092,8.147,8.147,0,0,0,4.251-1.092,7.471,7.471,0,0,0,2.867-3.14,10.471,10.471,0,0,0,1.034-4.777,10.471,10.471,0,0,0-1.034-4.778,7.471,7.471,0,0,0-2.867-3.14A8.147,8.147,0,0,0,42.354-22.854ZM76.05-5.538H65.013L63.063,0H57.252l10.14-27.222h6.279L83.772,0H77.961ZM74.568-9.711,70.512-21.333,66.456-9.711Zm35.412-4.1a14.729,14.729,0,0,1-1.716,7.215,11.942,11.942,0,0,1-4.973,4.856A16.243,16.243,0,0,1,95.55,0H85.761V-27.534H95.55a16.551,16.551,0,0,1,7.741,1.7,11.734,11.734,0,0,1,4.973,4.8A14.7,14.7,0,0,1,109.98-13.806Zm-14.9,8.892a9.539,9.539,0,0,0,6.883-2.34,8.654,8.654,0,0,0,2.438-6.552,8.707,8.707,0,0,0-2.437-6.591,9.539,9.539,0,0,0-6.883-2.34H91.26V-4.914Z" transform="translate(532 589)"/>
    <path id="Path_91" data-name="Path 91" class="cls-5" d="M-60.469-17.121l-1.17,5.343h5.031v4.992h-6.084L-64.135,0h-5.109L-67.8-6.786h-7.176L-76.42,0h-5.109l1.443-6.786h-5.85v-4.992h6.9l1.17-5.343h-5.694v-4.992h6.747l1.443-6.747h5.109L-71.7-22.113h7.176l1.443-6.747h5.109l-1.443,6.747h5.187v4.992Zm-5.109,0h-7.176l-1.17,5.343h7.176Zm19.227-10.413V0h-5.5V-27.534Zm33.7.312V0h-5.46V-18.993L-25.1,0h-4.758l-6.981-18.915V0h-5.5V-27.222h6.669L-27.4-6.747l8.112-20.475ZM8.132-5.538H-2.905L-4.855,0h-5.811L-.526-27.222H5.753L15.854,0H10.043ZM6.65-9.711,2.594-21.333-1.462-9.711ZM30.6-27.807a13.56,13.56,0,0,1,8.346,2.476,11.052,11.052,0,0,1,4.251,6.688H37.421a6.557,6.557,0,0,0-2.593-2.983,7.734,7.734,0,0,0-4.193-1.111,8.071,8.071,0,0,0-4.212,1.092,7.37,7.37,0,0,0-2.847,3.12,10.516,10.516,0,0,0-1.014,4.758,9.346,9.346,0,0,0,2.32,6.747A8.37,8.37,0,0,0,31.22-4.6a7.738,7.738,0,0,0,5.09-1.755,8.152,8.152,0,0,0,2.749-4.875H29.738v-3.939H43.661v5.3a12.976,12.976,0,0,1-2.282,5.031,12.272,12.272,0,0,1-4.446,3.685,13.817,13.817,0,0,1-6.3,1.385,14.152,14.152,0,0,1-7.156-1.775,12.222,12.222,0,0,1-4.8-4.953,15.208,15.208,0,0,1-1.7-7.273,15.208,15.208,0,0,1,1.7-7.274,12.39,12.39,0,0,1,4.778-4.972A13.924,13.924,0,0,1,30.6-27.807Zm21.723,4.641v7.137h9.75v4.212h-9.75v7.41h10.92V0H46.819V-27.534H63.239v4.368ZM85.235-7.527a7.466,7.466,0,0,1-1.053,3.88A7.563,7.563,0,0,1,81.062-.8,10.817,10.817,0,0,1,76.031.273,13.055,13.055,0,0,1,70.8-.722a8.836,8.836,0,0,1-3.686-2.867A8.269,8.269,0,0,1,65.54-7.956h5.85a4.47,4.47,0,0,0,1.345,2.789A4.22,4.22,0,0,0,75.8-4.056a3.563,3.563,0,0,0,2.632-.916,3.194,3.194,0,0,0,.917-2.359A3.091,3.091,0,0,0,78.6-9.458,5.407,5.407,0,0,0,76.732-10.8q-1.131-.507-3.12-1.17a30.842,30.842,0,0,1-4.212-1.7,7.786,7.786,0,0,1-2.789-2.438,6.983,6.983,0,0,1-1.15-4.173,6.785,6.785,0,0,1,2.554-5.6,10.5,10.5,0,0,1,6.767-2.048,10.717,10.717,0,0,1,6.962,2.106A7.949,7.949,0,0,1,84.689-20.2H78.76a4.129,4.129,0,0,0-1.248-2.437,3.875,3.875,0,0,0-2.769-.956,3.652,3.652,0,0,0-2.457.8,2.883,2.883,0,0,0-.936,2.321,2.885,2.885,0,0,0,.721,2.008A5.506,5.506,0,0,0,73.9-17.16a30.086,30.086,0,0,0,3.023,1.131,40.186,40.186,0,0,1,4.309,1.755,7.593,7.593,0,0,1,2.827,2.457A7.22,7.22,0,0,1,85.235-7.527Z" transform="translate(832 589)"/>
    <path id="Polygon_17" data-name="Polygon 17" class="cls-4" d="M48.6,14.3a10,10,0,0,1,17.152,0L105.263,80.2a10,10,0,0,1-8.576,15.143H17.657A10,10,0,0,1,9.081,80.2Z" transform="translate(1680.447 746.162)"/>
    <g id="Group_24" data-name="Group 24" transform="matrix(0.966, -0.259, 0.259, 0.966, 397.197, 218.421)">
      <g class="cls-13" transform="matrix(0.97, 0.26, -0.26, 0.97, -327.13, -313.78)">
        <rect id="Rectangle_10-2" data-name="Rectangle 10" class="cls-5" width="584.219" height="584.219" rx="200" transform="matrix(0.97, -0.26, 0.26, 0.97, 1078.85, 220.05)"/>
      </g>
      <path id="Path_68" data-name="Path 68" class="cls-5" d="M-301.566,343.583a11.155,11.155,0,0,0,7.829-3.243,11.133,11.133,0,0,0,3.243-7.816,11.148,11.148,0,0,0-3.244-7.829,11.184,11.184,0,0,0-7.828-3.229,11.177,11.177,0,0,0-7.816,3.232,11.176,11.176,0,0,0-3.229,7.827,11.18,11.18,0,0,0,3.23,7.816A11.13,11.13,0,0,0-301.566,343.583Z" transform="translate(1210.765 32.586)"/>
      <path id="Path_69" data-name="Path 69" class="cls-5" d="M-328.553,343.583a11.138,11.138,0,0,0,7.815-3.243,11.133,11.133,0,0,0,3.243-7.816,11.148,11.148,0,0,0-3.244-7.829,11.166,11.166,0,0,0-7.814-3.229,11.2,11.2,0,0,0-7.829,3.232,11.176,11.176,0,0,0-3.229,7.827,11.132,11.132,0,0,0,3.23,7.816A11.147,11.147,0,0,0-328.553,343.583Z" transform="translate(1200.443 32.586)"/>
      <path id="Path_70" data-name="Path 70" class="cls-5" d="M-355.553,343.583a11.139,11.139,0,0,0,7.817-3.244,11.172,11.172,0,0,0,3.242-7.814,11.194,11.194,0,0,0-3.244-7.829,11.166,11.166,0,0,0-7.814-3.229,11.2,11.2,0,0,0-7.829,3.232,11.176,11.176,0,0,0-3.229,7.827,11.132,11.132,0,0,0,3.23,7.816A11.152,11.152,0,0,0-355.553,343.583Z" transform="translate(1190.121 32.586)"/>
      <g id="Group_61" data-name="Group 61" transform="matrix(0.966, -0.259, 0.259, 0.966, -7011.055, -1293.113)">
        <g id="Group_58" data-name="Group 58" transform="translate(6654.096 2916.187)">
          <path id="Path_85" data-name="Path 85" class="cls-6" d="M579.4,983.813a20,20,0,0,1,0-40,96.61,96.61,0,0,0,96.5-96.5,20,20,0,0,1,40,0C715.9,922.58,654.67,983.813,579.4,983.813Z"/>
        </g>
        <g id="Group_57" data-name="Group 57" transform="translate(6654.096 2916.187)">
          <path id="Path_86" data-name="Path 86" class="cls-7" d="M695.9,867.313a20,20,0,0,1-20-20,96.61,96.61,0,0,0-96.5-96.5,20,20,0,0,1,0-40c75.266,0,136.5,61.234,136.5,136.5A20,20,0,0,1,695.9,867.313Z"/>
        </g>
        <g id="Group_59" data-name="Group 59" transform="translate(6654.096 2916.187)">
          <path id="Path_88" data-name="Path 88" class="cls-3" d="M579.4,983.813c-75.267,0-136.5-61.233-136.5-136.5a20,20,0,0,1,40,0,96.609,96.609,0,0,0,96.5,96.5,20,20,0,0,1,0,40Z"/>
        </g>
        <g id="Group_60" data-name="Group 60" transform="translate(6654.096 2916.187)">
          <path id="Path_87" data-name="Path 87" class="cls-3" d="M462.9,867.313a20,20,0,0,1-20-20c0-75.266,61.233-136.5,136.5-136.5a20,20,0,0,1,0,40,96.61,96.61,0,0,0-96.5,96.5A20,20,0,0,1,462.9,867.313Z"/>
        </g>
      </g>
    </g>
    <g id="Group_28" data-name="Group 28" transform="translate(3.264 4.115)">
      <path id="Polygon_25" data-name="Polygon 25" class="cls-4" d="M23.394,7.153a5,5,0,0,1,8.577,0L50.826,38.6a5,5,0,0,1-4.288,7.571H8.827A5,5,0,0,1,4.539,38.6Z" transform="translate(590.713 197.965) rotate(90)"/>
      <path id="Polygon_27" data-name="Polygon 27" class="cls-8" d="M23.394,7.153a5,5,0,0,1,8.577,0L50.826,38.6a5,5,0,0,1-4.288,7.571H8.827A5,5,0,0,1,4.539,38.6Z" transform="translate(639.676 197.965) rotate(90)"/>
      <path id="Polygon_28" data-name="Polygon 28" class="cls-9" d="M23.394,7.153a5,5,0,0,1,8.577,0L50.826,38.6a5,5,0,0,1-4.288,7.571H8.827A5,5,0,0,1,4.539,38.6Z" transform="translate(688.639 197.965) rotate(90)"/>
    </g>
    <path id="Path_49" data-name="Path 49" class="cls-10" d="M.01,2.935S319.4-.425,416.715,1.609" transform="matrix(1, -0.017, 0.017, 1, 110.982, 837.51)"/>
    <path id="Path_50" data-name="Path 50" class="cls-11" d="M0,0S319.369,8.865,416.608,8.506" transform="translate(537.6 839.49) rotate(177)"/>
  </g>
</svg>
